<mxfile host="app.diagrams.net" modified="2024-02-23T14:45:30.021Z" agent="Mozilla/5.0 (Windows NT 10.0; Win64; x64) AppleWebKit/537.36 (KHTML, like Gecko) Chrome/120.0.0.0 Safari/537.36" etag="mEEXIExT_3bqrUhKDuSW" version="23.1.6" type="device">
  <diagram name="PÃ¡gina-1" id="2CD3DUIf5q7oNG0_CJT9">
    <mxGraphModel dx="1434" dy="780" grid="1" gridSize="10" guides="1" tooltips="1" connect="1" arrows="1" fold="1" page="1" pageScale="1" pageWidth="827" pageHeight="1169" math="0" shadow="0">
      <root>
        <mxCell id="0" />
        <mxCell id="1" parent="0" />
        <mxCell id="6X_Act130VGcohsxyBt9-1" value="lampada" style="swimlane;fontStyle=1;align=center;verticalAlign=top;childLayout=stackLayout;horizontal=1;startSize=26;horizontalStack=0;resizeParent=1;resizeParentMax=0;resizeLast=0;collapsible=1;marginBottom=0;whiteSpace=wrap;html=1;strokeWidth=3;perimeterSpacing=1;fillColor=#fff2cc;strokeColor=#d6b656;" vertex="1" parent="1">
          <mxGeometry x="179" y="70" width="470" height="196" as="geometry" />
        </mxCell>
        <mxCell id="6X_Act130VGcohsxyBt9-2" value="+ ligada: bool" style="text;strokeColor=none;fillColor=none;align=left;verticalAlign=top;spacingLeft=4;spacingRight=4;overflow=hidden;rotatable=0;points=[[0,0.5],[1,0.5]];portConstraint=eastwest;whiteSpace=wrap;html=1;" vertex="1" parent="6X_Act130VGcohsxyBt9-1">
          <mxGeometry y="26" width="470" height="24" as="geometry" />
        </mxCell>
        <mxCell id="6X_Act130VGcohsxyBt9-5" value="&lt;span style=&quot;color: rgb(0, 0, 0); font-family: Helvetica; font-size: 12px; font-style: normal; font-variant-ligatures: normal; font-variant-caps: normal; font-weight: 400; letter-spacing: normal; orphans: 2; text-align: left; text-indent: 0px; text-transform: none; widows: 2; word-spacing: 0px; -webkit-text-stroke-width: 0px; background-color: rgb(251, 251, 251); text-decoration-thickness: initial; text-decoration-style: initial; text-decoration-color: initial; float: none; display: inline !important;&quot;&gt;+ potencia: int&lt;/span&gt;" style="text;whiteSpace=wrap;html=1;" vertex="1" parent="6X_Act130VGcohsxyBt9-1">
          <mxGeometry y="50" width="470" height="30" as="geometry" />
        </mxCell>
        <mxCell id="6X_Act130VGcohsxyBt9-6" value="&lt;span style=&quot;color: rgb(0, 0, 0); font-family: Helvetica; font-size: 12px; font-style: normal; font-variant-ligatures: normal; font-variant-caps: normal; font-weight: 400; letter-spacing: normal; orphans: 2; text-align: left; text-indent: 0px; text-transform: none; widows: 2; word-spacing: 0px; -webkit-text-stroke-width: 0px; background-color: rgb(251, 251, 251); text-decoration-thickness: initial; text-decoration-style: initial; text-decoration-color: initial; float: none; display: inline !important;&quot;&gt;+ cor: String&lt;/span&gt;" style="text;whiteSpace=wrap;html=1;" vertex="1" parent="6X_Act130VGcohsxyBt9-1">
          <mxGeometry y="80" width="470" height="30" as="geometry" />
        </mxCell>
        <mxCell id="6X_Act130VGcohsxyBt9-3" value="" style="line;strokeWidth=1;fillColor=none;align=left;verticalAlign=middle;spacingTop=-1;spacingLeft=3;spacingRight=3;rotatable=0;labelPosition=right;points=[];portConstraint=eastwest;strokeColor=inherit;" vertex="1" parent="6X_Act130VGcohsxyBt9-1">
          <mxGeometry y="110" width="470" height="8" as="geometry" />
        </mxCell>
        <mxCell id="6X_Act130VGcohsxyBt9-4" value="+ ligar(): void" style="text;strokeColor=none;fillColor=none;align=left;verticalAlign=top;spacingLeft=4;spacingRight=4;overflow=hidden;rotatable=0;points=[[0,0.5],[1,0.5]];portConstraint=eastwest;whiteSpace=wrap;html=1;" vertex="1" parent="6X_Act130VGcohsxyBt9-1">
          <mxGeometry y="118" width="470" height="26" as="geometry" />
        </mxCell>
        <mxCell id="6X_Act130VGcohsxyBt9-7" value="+ desligar(): void" style="text;strokeColor=none;fillColor=none;align=left;verticalAlign=top;spacingLeft=4;spacingRight=4;overflow=hidden;rotatable=0;points=[[0,0.5],[1,0.5]];portConstraint=eastwest;whiteSpace=wrap;html=1;" vertex="1" parent="6X_Act130VGcohsxyBt9-1">
          <mxGeometry y="144" width="470" height="26" as="geometry" />
        </mxCell>
        <mxCell id="6X_Act130VGcohsxyBt9-8" value="+ estaLigada(): void" style="text;strokeColor=none;fillColor=none;align=left;verticalAlign=top;spacingLeft=4;spacingRight=4;overflow=hidden;rotatable=0;points=[[0,0.5],[1,0.5]];portConstraint=eastwest;whiteSpace=wrap;html=1;" vertex="1" parent="6X_Act130VGcohsxyBt9-1">
          <mxGeometry y="170" width="470" height="26" as="geometry" />
        </mxCell>
      </root>
    </mxGraphModel>
  </diagram>
</mxfile>
